<?xml version="1.0" encoding="UTF-8" standalone="no"?>
<svg
   version="1.1"
   width="640"
   height="640"
   viewBox="0 0 640 640"
   xml:space="preserve"
   id="svg10"
   sodipodi:docname="icon.svg"
   inkscape:version="1.3.2 (091e20e, 2023-11-25, custom)"
   xmlns:inkscape="http://www.inkscape.org/namespaces/inkscape"
   xmlns:sodipodi="http://sodipodi.sourceforge.net/DTD/sodipodi-0.dtd"
   xmlns="http://www.w3.org/2000/svg"
   xmlns:svg="http://www.w3.org/2000/svg"><sodipodi:namedview
   id="namedview10"
   pagecolor="#ffffff"
   bordercolor="#000000"
   borderopacity="0.25"
   inkscape:showpageshadow="2"
   inkscape:pageopacity="0.0"
   inkscape:pagecheckerboard="0"
   inkscape:deskcolor="#d1d1d1"
   inkscape:zoom="1.8453125"
   inkscape:cx="319.72904"
   inkscape:cy="320"
   inkscape:window-width="3440"
   inkscape:window-height="1377"
   inkscape:window-x="-8"
   inkscape:window-y="-8"
   inkscape:window-maximized="1"
   inkscape:current-layer="svg10" />
<desc
   id="desc1">Created with Fabric.js 3.6.3</desc>
<defs
   id="defs1">
</defs>
<g
   transform="matrix(1.33 0 0 1.3 204.5 320)"
   id="g9">
<g
   style=""
   id="g8">
		<g
   transform="matrix(1 0 0 1 17.1 0)"
   id="Capa_1">
<path
   style="stroke: none; stroke-width: 1; stroke-dasharray: none; stroke-linecap: butt; stroke-dashoffset: 0; stroke-linejoin: miter; stroke-miterlimit: 4; fill: rgb(0,0,0); fill-rule: nonzero; opacity: 1;"
   transform=" translate(-262.1, -245)"
   d="M 262.096 490 c -14.151 0 -27.883 -2.774 -40.818 -8.245 c -12.487 -5.281 -23.7 -12.841 -33.326 -22.468 c -9.626 -9.626 -17.185 -20.838 -22.468 -33.326 c -5.47 -12.933 -8.244 -26.666 -8.244 -40.816 c 0 -16.766 4.058 -33.445 11.733 -48.233 c 6.607 -12.729 15.9 -24.11 27.054 -33.183 V 49.967 C 196.028 22.415 218.443 0 245.996 0 h 32.201 c 27.552 0 49.968 22.415 49.968 49.967 v 253.762 c 11.154 9.072 20.447 20.453 27.054 33.183 c 7.676 14.788 11.733 31.468 11.733 48.233 c 0 14.15 -2.773 27.884 -8.245 40.816 c -5.282 12.488 -12.84 23.7 -22.467 33.326 c -9.626 9.627 -20.839 17.186 -33.327 22.468 C 289.981 487.226 276.248 490 262.096 490 z M 245.996 20.578 c -16.205 0 -29.389 13.184 -29.389 29.389 V 308.78 c 0 3.281 -1.565 6.366 -4.213 8.304 c -21.649 15.84 -34.574 41.283 -34.574 68.06 c 0 46.47 37.806 84.276 84.277 84.276 c 46.471 0 84.277 -37.807 84.277 -84.276 c 0 -26.777 -12.925 -52.221 -34.575 -68.06 c -2.648 -1.938 -4.213 -5.023 -4.213 -8.304 V 49.967 c 0 -16.205 -13.184 -29.389 -29.389 -29.389 H 245.996 z"
   stroke-linecap="round"
   id="path1" />
</g>
		<g
   transform="matrix(1 0 0 1 17.1 21.66)"
   id="g2">
<path
   style="stroke: none; stroke-width: 1; stroke-dasharray: none; stroke-linecap: butt; stroke-dashoffset: 0; stroke-linejoin: miter; stroke-miterlimit: 4; fill: rgb(0,0,0); fill-rule: nonzero; opacity: 1;"
   transform=" translate(-262.1, -266.66)"
   d="M 283.943 325.025 v -224.65 c 0 -8.918 -7.229 -16.147 -16.146 -16.147 h -11.402 c -8.917 0 -16.146 7.229 -16.146 16.147 v 224.65 c -24.561 8.927 -42.105 32.475 -42.105 60.121 c 0 35.32 28.632 63.953 63.952 63.953 c 35.32 0 63.953 -28.633 63.953 -63.953 C 326.048 357.5 308.505 333.952 283.943 325.025 z M 247.931 365.24 c -4.783 4.243 -7.878 9.827 -8.949 16.148 c -0.563 3.33 -0.526 6.681 0.113 9.957 c 0.819 4.204 -1.925 8.276 -6.13 9.096 c -0.501 0.099 -1 0.146 -1.492 0.146 c -3.637 0 -6.883 -2.57 -7.605 -6.274 c -0.997 -5.117 -1.057 -10.337 -0.18 -15.514 c 1.643 -9.707 6.598 -18.643 13.95 -25.164 c 3.205 -2.842 8.107 -2.549 10.95 0.656 C 251.429 357.496 251.136 362.397 247.931 365.24 z"
   stroke-linecap="round"
   id="path2" />
</g>
		<g
   transform="matrix(1 0 0 1 -104.84 -174.29)"
   id="g3">
<path
   style="stroke: none; stroke-width: 1; stroke-dasharray: none; stroke-linecap: butt; stroke-dashoffset: 0; stroke-linejoin: miter; stroke-miterlimit: 4; fill: rgb(0,0,0); fill-rule: nonzero; opacity: 1;"
   transform=" translate(-140.16, -70.71)"
   d="M 157.262 75.302 c 0 4.658 -3.776 8.436 -8.436 8.436 h -17.341 c -4.66 0 -8.437 -3.778 -8.437 -8.436 v -9.192 c 0 -4.66 3.777 -8.437 8.437 -8.437 h 17.341 c 4.66 0 8.436 3.776 8.436 8.437 V 75.302 z"
   stroke-linecap="round"
   id="path3" />
</g>
		<g
   transform="matrix(1 0 0 1 -104.84 -119.3)"
   id="g4">
<path
   style="stroke: none; stroke-width: 1; stroke-dasharray: none; stroke-linecap: butt; stroke-dashoffset: 0; stroke-linejoin: miter; stroke-miterlimit: 4; fill: rgb(0,0,0); fill-rule: nonzero; opacity: 1;"
   transform=" translate(-140.16, -125.7)"
   d="M 157.262 130.298 c 0 4.66 -3.776 8.437 -8.436 8.437 h -17.341 c -4.66 0 -8.437 -3.776 -8.437 -8.437 v -9.192 c 0 -4.66 3.777 -8.437 8.437 -8.437 h 17.341 c 4.66 0 8.436 3.776 8.436 8.437 V 130.298 z"
   stroke-linecap="round"
   id="path4" />
</g>
		<g
   transform="matrix(1 0 0 1 -104.84 -64.3)"
   id="g5">
<path
   style="stroke: none; stroke-width: 1; stroke-dasharray: none; stroke-linecap: butt; stroke-dashoffset: 0; stroke-linejoin: miter; stroke-miterlimit: 4; fill: rgb(0,0,0); fill-rule: nonzero; opacity: 1;"
   transform=" translate(-140.16, -180.7)"
   d="M 157.262 185.294 c 0 4.66 -3.776 8.437 -8.436 8.437 h -17.341 c -4.66 0 -8.437 -3.776 -8.437 -8.437 v -9.191 c 0 -4.659 3.777 -8.438 8.437 -8.438 h 17.341 c 4.66 0 8.436 3.778 8.436 8.438 V 185.294 z"
   stroke-linecap="round"
   id="path5" />
</g>
		<g
   transform="matrix(1 0 0 1 -104.84 -9.3)"
   id="g6">
<path
   style="stroke: none; stroke-width: 1; stroke-dasharray: none; stroke-linecap: butt; stroke-dashoffset: 0; stroke-linejoin: miter; stroke-miterlimit: 4; fill: rgb(0,0,0); fill-rule: nonzero; opacity: 1;"
   transform=" translate(-140.16, -235.7)"
   d="M 157.262 240.291 c 0 4.659 -3.776 8.438 -8.436 8.438 h -17.341 c -4.66 0 -8.437 -3.778 -8.437 -8.438 V 231.1 c 0 -4.66 3.777 -8.436 8.437 -8.436 h 17.341 c 4.66 0 8.436 3.776 8.436 8.436 V 240.291 z"
   stroke-linecap="round"
   id="path6" />
</g>
		<g
   transform="matrix(1 0 0 1 -104.84 45.69)"
   id="g7">
<path
   style="stroke: none; stroke-width: 1; stroke-dasharray: none; stroke-linecap: butt; stroke-dashoffset: 0; stroke-linejoin: miter; stroke-miterlimit: 4; fill: rgb(0,0,0); fill-rule: nonzero; opacity: 1;"
   transform=" translate(-140.16, -290.69)"
   d="M 157.262 295.287 c 0 4.661 -3.776 8.438 -8.436 8.438 h -17.341 c -4.66 0 -8.437 -3.776 -8.437 -8.438 v -9.191 c 0 -4.658 3.777 -8.436 8.437 -8.436 h 17.341 c 4.66 0 8.436 3.778 8.436 8.436 V 295.287 z"
   stroke-linecap="round"
   id="path7" />
</g>
</g>
</g>
<g
   transform="matrix(7.08 0 0 7.08 489.7 214.8)"
   id="g10">
<path
   style="stroke: none; stroke-width: 1; stroke-dasharray: none; stroke-linecap: butt; stroke-dashoffset: 0; stroke-linejoin: miter; stroke-miterlimit: 4; fill: rgb(0,0,0); fill-rule: nonzero; opacity: 1;"
   transform=" translate(-30, -30)"
   d="M 45.994 16.917 L 26.834 0 v 21.758 l -8.586 -8.586 l -4.242 4.242 L 26.092 29.5 L 14.006 41.586 l 4.242 4.242 l 8.586 -8.586 V 60 l 19.16 -19.083 l -11.52 -11.52 L 45.994 16.917 z M 32.834 46.327 V 36.242 l 4.84 4.841 L 32.834 46.327 z M 37.675 17.083 l -4.84 5.244 V 12.242 L 37.675 17.083 z"
   stroke-linecap="round"
   id="path9" />
</g>
<text
   xml:space="preserve"
   style="white-space:pre;inline-size:65.2291;fill:none;fill-opacity:0;stroke:#000000;stroke-width:1.59922;stroke-linecap:round;stroke-linejoin:bevel;stroke-miterlimit:0;paint-order:fill markers stroke"
   x="408.60287"
   y="552.20996"
   id="text10"
   transform="matrix(8.0343959,0,0,10.949951,-2871.0153,-5437.5095)"><tspan
     x="408.60287"
     y="552.20996"
     id="tspan1">ATC</tspan></text></svg>
